<svg id="Layer_1" data-name="Layer 1" xmlns="http://www.w3.org/2000/svg" viewBox="0 0 429.61 172"><defs><style>.cls-1{fill:#fff;}.cls-2{fill:#0077c8;}.cls-3{fill:#da291c;}</style></defs><path class="cls-2" d="M14.1,145.84l-1.24,6.34H7.63l6-27.75h6.47l5.39,27.75H20.23l-1.15-6.34Zm4.48-4.2-.9-5.81c-.29-1.69-.66-4.49-.91-6.3h-.12c-.29,1.85-.7,4.7-1,6.3l-1,5.81Z"/><path class="cls-2" d="M32.28,146.66a10.69,10.69,0,0,0,4.58,1.07c2.51,0,3.78-1.32,3.78-3.13,0-2-1.23-3-3.58-4.53-3.79-2.3-5.23-5.23-5.23-7.74,0-4.44,3-8.15,8.73-8.15a9.83,9.83,0,0,1,4.37,1l-.87,4.65a6.58,6.58,0,0,0-3.5-.95c-2.3,0-3.42,1.4-3.42,2.85,0,1.68.83,2.55,3.79,4.36,3.71,2.22,5,5,5,7.95,0,5.06-3.75,8.4-9.15,8.4a12.27,12.27,0,0,1-5.31-1.12l.78-4.65Z"/><path class="cls-2" d="M52.83,146.66a10.65,10.65,0,0,0,4.57,1.07c2.51,0,3.79-1.32,3.79-3.13,0-2-1.23-3-3.58-4.53-3.79-2.3-5.23-5.23-5.23-7.74,0-4.44,3-8.15,8.73-8.15a9.75,9.75,0,0,1,4.36,1l-.86,4.65a6.61,6.61,0,0,0-3.5-.95c-2.31,0-3.42,1.4-3.42,2.85,0,1.68.82,2.55,3.79,4.36,3.7,2.22,5,5,5,7.95,0,5.06-3.74,8.4-9.14,8.4a12.27,12.27,0,0,1-5.31-1.12l.78-4.65Z"/><path class="cls-2" d="M80.58,152.51c-6.3,0-8.77-6.67-8.77-14.29s3-14.12,9.19-14.12c6.67,0,8.56,7.37,8.56,13.71,0,10.46-3.7,14.7-8.93,14.7Zm.21-4.69c2.31,0,3.17-4.12,3.17-9.76,0-4.9-.74-9.27-3.21-9.27s-3.38,4.37-3.34,9.39c-.08,5.52,1,9.64,3.34,9.64Z"/><path class="cls-2" d="M109.78,151.77a10.85,10.85,0,0,1-4.16.66c-7.12,0-10.5-5.81-10.5-13.71,0-10.46,5.8-14.54,11.2-14.54a7.94,7.94,0,0,1,3.75.74l-.91,4.53a5.43,5.43,0,0,0-2.51-.53c-3.05,0-5.81,2.63-5.81,9.51,0,6.63,2.51,9.22,5.81,9.22a9.69,9.69,0,0,0,2.59-.41l.54,4.53Z"/><polygon class="cls-2" points="123.28 124.43 123.28 152.18 117.89 152.18 117.89 124.43 123.28 124.43 123.28 124.43"/><path class="cls-2" d="M137.65,145.84l-1.23,6.34h-5.23l6-27.75h6.47l5.39,27.75h-5.27l-1.15-6.34Zm4.49-4.2-.9-5.81c-.29-1.69-.66-4.49-.91-6.3h-.12c-.29,1.85-.7,4.7-1,6.3l-1,5.81Z"/><polygon class="cls-2" points="158.2 129.41 153.3 129.41 153.3 124.43 168.54 124.43 168.54 129.41 163.6 129.41 163.6 152.18 158.2 152.18 158.2 129.41 158.2 129.41"/><polygon class="cls-2" points="188.22 139.99 181.92 139.99 181.92 147.48 189.04 147.48 189.04 152.18 176.52 152.18 176.52 124.43 188.59 124.43 188.59 129.12 181.92 129.12 181.92 135.5 188.22 135.5 188.22 139.99 188.22 139.99"/><path class="cls-2" d="M197.07,124.84a24.78,24.78,0,0,1,5.48-.54c3.5,0,5.93.83,7.7,2.47,2.39,2.15,3.62,5.81,3.62,11.2,0,5.6-1.44,9.6-3.87,11.74-1.89,1.77-4.61,2.68-8.44,2.68a41.12,41.12,0,0,1-4.49-.29V124.84Zm5.4,23.06a3.7,3.7,0,0,0,.94.08c2.6,0,4.86-2.55,4.86-10.21,0-5.68-1.48-9.14-4.73-9.14a3.15,3.15,0,0,0-1.07.12V147.9Z"/><polygon class="cls-2" points="237.48 129.41 232.58 129.41 232.58 124.43 247.81 124.43 247.81 129.41 242.87 129.41 242.87 152.18 237.48 152.18 237.48 129.41 237.48 129.41"/><polygon class="cls-2" points="266.67 139.99 260.37 139.99 260.37 147.48 267.49 147.48 267.49 152.18 254.98 152.18 254.98 124.43 267.04 124.43 267.04 129.12 260.37 129.12 260.37 135.5 266.67 135.5 266.67 139.99 266.67 139.99"/><path class="cls-2" d="M275.55,124.84a32.19,32.19,0,0,1,5.89-.54c3,0,5.64.42,7.41,2.06a7.11,7.11,0,0,1,2.23,5.77A7.35,7.35,0,0,1,286.8,139v.09c1.89.78,2.84,2.51,3.37,5.52a45.73,45.73,0,0,0,1.77,7.53H286.3a33.44,33.44,0,0,1-1.4-6.67c-.49-3.42-1.36-4.41-3.13-4.41H281v11.08h-5.4V124.84Zm5.4,12.1h1c2.34,0,3.66-1.89,3.66-4.32s-1-4-3.33-4.12a3.74,3.74,0,0,0-1.32.17v8.27Z"/><path class="cls-2" d="M315.37,142.46c-.16-2.63-.33-6.17-.29-9.18H315c-.49,3-1.23,6.38-1.77,8.52l-2.43,9.93H307l-2.3-9.76c-.54-2.22-1.28-5.68-1.73-8.69h-.08c-.09,3-.29,6.51-.41,9.26l-.5,9.64h-4.61l2-27.75h5.73l2.22,10c.74,3.5,1.44,6.59,1.94,9.72h.12c.41-3.09,1-6.22,1.73-9.72l2.22-10H319l1.69,27.75h-4.81l-.5-9.72Z"/><polygon class="cls-2" points="333.53 124.43 333.53 152.18 328.14 152.18 328.14 124.43 333.53 124.43 333.53 124.43"/><path class="cls-2" d="M341.85,152.18V124.43h4.94l4.28,10.91c.86,2.1,2.18,5.68,3,8.07h.08c-.17-2.88-.54-7.74-.54-12.85v-6.13h4.74v27.75h-4.94l-4.25-10.58a81.41,81.41,0,0,1-2.84-8.32h-.08c.17,2.8.37,7.08.37,12.64v6.26Z"/><path class="cls-2" d="M371,145.84l-1.24,6.34h-5.23l6-27.75H377l5.4,27.75h-5.27L376,145.84Zm4.49-4.2-.91-5.81c-.29-1.69-.66-4.49-.9-6.3h-.13c-.28,1.85-.7,4.7-1,6.3l-1,5.81Z"/><polygon class="cls-2" points="388.95 124.43 394.35 124.43 394.35 147.61 401.43 147.61 401.43 152.18 388.95 152.18 388.95 124.43 388.95 124.43"/><path class="cls-2" d="M408.3,146.66a10.68,10.68,0,0,0,4.57,1.07c2.52,0,3.8-1.32,3.8-3.13,0-2-1.24-3-3.59-4.53-3.79-2.3-5.23-5.23-5.23-7.74,0-4.44,3-8.15,8.73-8.15a9.83,9.83,0,0,1,4.37,1l-.87,4.65a6.61,6.61,0,0,0-3.5-.95c-2.3,0-3.42,1.4-3.42,2.85,0,1.68.83,2.55,3.79,4.36,3.71,2.22,5,5,5,7.95,0,5.06-3.75,8.4-9.15,8.4a12.27,12.27,0,0,1-5.31-1.12l.78-4.65Z"/><path class="cls-1" d="M168.22,67.06a38,38,0,0,0,4.18,18.35c-2.19,2.08-1.14,3.7-3.43,3.16-3.17-.73-7-2.91-7.67-2.38-1.41,1.39.91,9.67,1.68,10.74s7.17,3.35,9.52,2a4.82,4.82,0,0,0,1.77-1.15c.84-.85,1.23-3.66,2.63-3.08,2,.81,2.1.89,2.1.89l-2.77,18h26.23l.82-4.88,5.3.5,3.57,8.43,3.37-8.34,5.53-.76.9,5.05h26l-3.05-18s3.14-2.46,4-.71c1.06,2.22,2.35,4.22,3.87,4.68s6.35-.4,8-1.78,3.47-7.68,3.21-9.59a2.3,2.3,0,0,0-2.71-1.58c-1.07.3-3.89,1.6-5.88,2.06s-1.27-2.73-3.87-4.09a42.77,42.77,0,0,0,3.78-17.6c0-23.59-19.45-35-21-36.09,0,0-1.83-11.5-2-11.48H190.23s-1.79,12-1.81,12.07c-4.37,2.54-19.28,11.24-20.2,35.5Z"/><path class="cls-2" d="M211.79,107.4c-22.83,0-41.4-18-41.4-40.17S189,27.05,211.79,27.05s41.41,18,41.41,40.18-18.58,40.17-41.41,40.17Zm0-77.31c-21.15,0-38.37,16.66-38.37,37.14s17.22,37.14,38.37,37.14,38.37-16.66,38.37-37.14S233,30.09,211.79,30.09Z"/><path class="cls-1" d="M215.6,109l4-9.5,1.45,9s19-11.29,24.42-15.71,5.11-8.4,5.11-8.4a7.2,7.2,0,0,0-7.25,1.07l-8.77-53-46.24-.23-7.59,52.6c-3.54-2-7.13-.8-7.74.12s20.6,22.66,20.6,22.66l9.76.3,1.38-7.78,3.39,8.2,7.44.65Z"/><polygon class="cls-3" points="192.18 21.65 230.72 21.65 245.38 111.47 223.86 111.47 212.03 45.93 200.66 111.48 178.89 111.48 192.18 21.65 192.18 21.65"/><path class="cls-1" d="M181.88,84.87l1.77,1.59c3.18-4.29,6.55-2,6.55-2,1,.33,3.32,1.49,4.09,2.71.87-3.13,4.39-3,4.39-3l-2.8-6.28c.05,0,7.25-2.08,7.25-2.08V74.18h-5.24V67.36h5.22V63.11h5.56V56.58h6.91v6.5h5.34v4.22H226v6.82h-5.11v1.78l7.5,2.52-2.07,4.81c2.84,1.5,3.71,2.61,4.05,3.83,2.84-2.85,4.67-3.27,5.68-3.31,3.42-.16,5.64,3.4,5.64,3.4L244,96.28c-.84.08-4.3,2.88-4.3,2.88-1.16-3.87-1.78-4.76-3.85-4.72-2.22,0-6.79,5-6.79,5-2-6.68-8.49-3.08-8.49-3.08l-15.94,1.07c-.38-2.66-3.85-3.08-5.44-3.08-1.74,0-3.09,5.18-3.09,5.18-1.87-2.15-5.63-5.23-7.85-5.32-2-.08-3.13,5.56-3.13,5.56a8,8,0,0,0-4.58-3.18l1.32-11.77Z"/><polygon class="cls-2" points="211.78 74.7 198.2 78.9 212.16 112.14 226.13 78.81 211.78 74.7 211.78 74.7"/><polygon class="cls-2" points="204.56 64.52 219.39 64.52 219.39 77.78 204.56 77.78 204.56 64.52 204.56 64.52"/><polygon class="cls-2" points="210.24 57.98 214.09 57.98 214.09 65.83 210.24 65.83 210.24 57.98 210.24 57.98"/><polygon class="cls-1" points="206.87 66.76 206.87 76.37 212.36 74.51 217.18 76.1 217.18 66.76 206.87 66.76 206.87 66.76"/><polygon class="cls-3" points="199.35 68.81 224.5 68.81 224.5 72.74 199.35 72.74 199.35 68.81 199.35 68.81"/><polygon class="cls-1" points="212.55 105.04 223.05 80.58 212.55 77.12 212.55 105.04 212.55 105.04"/><path class="cls-2" d="M225.27,85.85A4.82,4.82,0,0,1,230,89.56c.92-.83,3.09-3.58,5.91-4s5,2.94,5.53,3.7c4.62-3.87,6.31-3.47,7.41-3.36,3.28.33,2.73,4,4.34,4.77,2.84,1.3,8-2.15,8.52-1.64s-2.11,7-2.11,7c-.39.79-3.81,1.67-5.64,1.5-2.51-.24-2.87-2.06-4.13-4s-2.4-2.52-5.14-.46c-1.62,1.21-3.54,2.84-4,3.13a5.07,5.07,0,0,0-3.17-3.62c-1.31-.55-5.45.38-8,4-.23-.3-2.63-5.33-7.28-3.16,0,0,3-7.63,3-7.65Z"/><path class="cls-2" d="M165,96c4.81,2.43,7.88,1.51,8.34.48.88-2,.69-2.38,2.25-3.58,2.82-2.18,8,3,9,4.23,1-4.55,3.2-4.15,4.3-4.26,3.28-.33,6.89,4,7,3.64,1.54-6,6.21-2.25,6.69-2.85l-3.25-7.88c-2.82-.27-3.85,2.5-4.42,3.87-1.18-1.26-4-4.35-7.23-4-2,.24-3.17,2.23-4.17,3.66-.81-.53-2.21-3.61-7.51-3.61-1.71,0-2.77,2-3.42,3.64-1.2,3-5.54,1-9.32-.56-1-.42,1.46,7,1.76,7.19Z"/></svg>