<svg xmlns="http://www.w3.org/2000/svg" xmlns:xlink="http://www.w3.org/1999/xlink" version="1.1" width="1000" height="1000" viewBox="0 0 1000 1000" xml:space="preserve">
<desc>Created with Fabric.js 3.5.0</desc>
<defs>
</defs>
<rect x="0" y="0" width="100%" height="100%" fill="rgba(255,255,255,0)"/>
<g transform="matrix(2.1161 0 0 2.1161 500.0034 500.0014)" id="12839">
<g style="" vector-effect="non-scaling-stroke">
		<g transform="matrix(1 0 0 1 -198.245 52.305)" id="Layer_1">
<path style="stroke: none; stroke-width: 1; stroke-dasharray: none; stroke-linecap: butt; stroke-dashoffset: 0; stroke-linejoin: miter; stroke-miterlimit: 4; is-custom-font: none; font-file-url: none; fill: rgb(255,255,255); fill-rule: nonzero; opacity: 1;" transform=" translate(-16.56, -138.305)" d="M 14.1 145.84 l -1.24 6.34 H 7.63 l 6 -27.75 h 6.47 l 5.39 27.75 H 20.23 l -1.15 -6.34 Z m 4.48 -4.2 l -0.9 -5.81 c -0.29 -1.69 -0.66 -4.49 -0.91 -6.3 h -0.12 c -0.29 1.85 -0.7 4.7 -1 6.3 l -1 5.81 Z" stroke-linecap="round"/>
</g>
		<g transform="matrix(1 0 0 1 -176.105 52.3107)" id="Layer_1">
<path style="stroke: none; stroke-width: 1; stroke-dasharray: none; stroke-linecap: butt; stroke-dashoffset: 0; stroke-linejoin: miter; stroke-miterlimit: 4; is-custom-font: none; font-file-url: none; fill: rgb(255,255,255); fill-rule: nonzero; opacity: 1;" transform=" translate(-38.7, -138.3106)" d="M 32.28 146.66 a 10.69 10.69 0 0 0 4.58 1.07 c 2.51 0 3.78 -1.32 3.78 -3.13 c 0 -2 -1.23 -3 -3.58 -4.53 c -3.79 -2.3 -5.23 -5.23 -5.23 -7.74 c 0 -4.44 3 -8.15 8.73 -8.15 a 9.83 9.83 0 0 1 4.37 1 l -0.87 4.65 a 6.58 6.58 0 0 0 -3.5 -0.95 c -2.3 0 -3.42 1.4 -3.42 2.85 c 0 1.68 0.83 2.55 3.79 4.36 c 3.71 2.22 5 5 5 7.95 c 0 5.06 -3.75 8.4 -9.15 8.4 a 12.27 12.27 0 0 1 -5.31 -1.12 l 0.78 -4.65 Z" stroke-linecap="round"/>
</g>
		<g transform="matrix(1 0 0 1 -155.55 52.3106)" id="Layer_1">
<path style="stroke: none; stroke-width: 1; stroke-dasharray: none; stroke-linecap: butt; stroke-dashoffset: 0; stroke-linejoin: miter; stroke-miterlimit: 4; is-custom-font: none; font-file-url: none; fill: rgb(255,255,255); fill-rule: nonzero; opacity: 1;" transform=" translate(-59.255, -138.3106)" d="M 52.83 146.66 a 10.65 10.65 0 0 0 4.57 1.07 c 2.51 0 3.79 -1.32 3.79 -3.13 c 0 -2 -1.23 -3 -3.58 -4.53 c -3.79 -2.3 -5.23 -5.23 -5.23 -7.74 c 0 -4.44 3 -8.15 8.73 -8.15 a 9.75 9.75 0 0 1 4.36 1 l -0.86 4.65 a 6.61 6.61 0 0 0 -3.5 -0.95 c -2.31 0 -3.42 1.4 -3.42 2.85 c 0 1.68 0.82 2.55 3.79 4.36 c 3.7 2.22 5 5 5 7.95 c 0 5.06 -3.74 8.4 -9.14 8.4 a 12.27 12.27 0 0 1 -5.31 -1.12 l 0.78 -4.65 Z" stroke-linecap="round"/>
</g>
		<g transform="matrix(1 0 0 1 -134.12 52.305)" id="Layer_1">
<path style="stroke: none; stroke-width: 1; stroke-dasharray: none; stroke-linecap: butt; stroke-dashoffset: 0; stroke-linejoin: miter; stroke-miterlimit: 4; is-custom-font: none; font-file-url: none; fill: rgb(255,255,255); fill-rule: nonzero; opacity: 1;" transform=" translate(-80.685, -138.305)" d="M 80.58 152.51 c -6.3 0 -8.77 -6.67 -8.77 -14.29 s 3 -14.12 9.19 -14.12 c 6.67 0 8.56 7.37 8.56 13.71 c 0 10.46 -3.7 14.7 -8.93 14.7 Z m 0.21 -4.69 c 2.31 0 3.17 -4.12 3.17 -9.76 c 0 -4.9 -0.74 -9.27 -3.21 -9.27 s -3.38 4.37 -3.34 9.39 c -0.08 5.52 1 9.64 3.34 9.64 Z" stroke-linecap="round"/>
</g>
		<g transform="matrix(1 0 0 1 -112.21 52.3043)" id="Layer_1">
<path style="stroke: none; stroke-width: 1; stroke-dasharray: none; stroke-linecap: butt; stroke-dashoffset: 0; stroke-linejoin: miter; stroke-miterlimit: 4; is-custom-font: none; font-file-url: none; fill: rgb(255,255,255); fill-rule: nonzero; opacity: 1;" transform=" translate(-102.595, -138.3043)" d="M 109.78 151.77 a 10.85 10.85 0 0 1 -4.16 0.66 c -7.12 0 -10.5 -5.81 -10.5 -13.71 c 0 -10.46 5.8 -14.54 11.2 -14.54 a 7.94 7.94 0 0 1 3.75 0.74 l -0.91 4.53 a 5.43 5.43 0 0 0 -2.51 -0.53 c -3.05 0 -5.81 2.63 -5.81 9.51 c 0 6.63 2.51 9.22 5.81 9.22 a 9.69 9.69 0 0 0 2.59 -0.41 l 0.54 4.53 Z" stroke-linecap="round"/>
</g>
		<g transform="matrix(1 0 0 1 -94.22 52.305)" id="Layer_1">
<polygon style="stroke: none; stroke-width: 1; stroke-dasharray: none; stroke-linecap: butt; stroke-dashoffset: 0; stroke-linejoin: miter; stroke-miterlimit: 4; is-custom-font: none; font-file-url: none; fill: rgb(255,255,255); fill-rule: nonzero; opacity: 1;" points="2.695,-13.875 2.695,13.875 -2.695,13.875 -2.695,-13.875 2.695,-13.875 2.695,-13.875 "/>
</g>
		<g transform="matrix(1 0 0 1 -74.685 52.305)" id="Layer_1">
<path style="stroke: none; stroke-width: 1; stroke-dasharray: none; stroke-linecap: butt; stroke-dashoffset: 0; stroke-linejoin: miter; stroke-miterlimit: 4; is-custom-font: none; font-file-url: none; fill: rgb(255,255,255); fill-rule: nonzero; opacity: 1;" transform=" translate(-140.12, -138.305)" d="M 137.65 145.84 l -1.23 6.34 h -5.23 l 6 -27.75 h 6.47 l 5.39 27.75 h -5.27 l -1.15 -6.34 Z m 4.49 -4.2 l -0.9 -5.81 c -0.29 -1.69 -0.66 -4.49 -0.91 -6.3 h -0.12 c -0.29 1.85 -0.7 4.7 -1 6.3 l -1 5.81 Z" stroke-linecap="round"/>
</g>
		<g transform="matrix(1 0 0 1 -53.885 52.305)" id="Layer_1">
<polygon style="stroke: none; stroke-width: 1; stroke-dasharray: none; stroke-linecap: butt; stroke-dashoffset: 0; stroke-linejoin: miter; stroke-miterlimit: 4; is-custom-font: none; font-file-url: none; fill: rgb(255,255,255); fill-rule: nonzero; opacity: 1;" points="-2.72,-8.895 -7.62,-8.895 -7.62,-13.875 7.62,-13.875 7.62,-8.895 2.68,-8.895 2.68,13.875 -2.72,13.875 -2.72,-8.895 -2.72,-8.895 "/>
</g>
		<g transform="matrix(1 0 0 1 -32.025 52.305)" id="Layer_1">
<polygon style="stroke: none; stroke-width: 1; stroke-dasharray: none; stroke-linecap: butt; stroke-dashoffset: 0; stroke-linejoin: miter; stroke-miterlimit: 4; is-custom-font: none; font-file-url: none; fill: rgb(255,255,255); fill-rule: nonzero; opacity: 1;" points="5.44,1.685 -0.86,1.685 -0.86,9.175 6.26,9.175 6.26,13.875 -6.26,13.875 -6.26,-13.875 5.81,-13.875 5.81,-9.185 -0.86,-9.185 -0.86,-2.805 5.44,-2.805 5.44,1.685 5.44,1.685 "/>
</g>
		<g transform="matrix(1 0 0 1 -9.335 52.344)" id="Layer_1">
<path style="stroke: none; stroke-width: 1; stroke-dasharray: none; stroke-linecap: butt; stroke-dashoffset: 0; stroke-linejoin: miter; stroke-miterlimit: 4; is-custom-font: none; font-file-url: none; fill: rgb(255,255,255); fill-rule: nonzero; opacity: 1;" transform=" translate(-205.47, -138.3439)" d="M 197.07 124.84 a 24.78 24.78 0 0 1 5.48 -0.54 c 3.5 0 5.93 0.83 7.7 2.47 c 2.39 2.15 3.62 5.81 3.62 11.2 c 0 5.6 -1.44 9.6 -3.87 11.74 c -1.89 1.77 -4.61 2.68 -8.44 2.68 a 41.12 41.12 0 0 1 -4.49 -0.29 V 124.84 Z m 5.4 23.06 a 3.7 3.7 0 0 0 0.94 0.08 c 2.6 0 4.86 -2.55 4.86 -10.21 c 0 -5.68 -1.48 -9.14 -4.73 -9.14 a 3.15 3.15 0 0 0 -1.07 0.12 V 147.9 Z" stroke-linecap="round"/>
</g>
		<g transform="matrix(1 0 0 1 25.39 52.305)" id="Layer_1">
<polygon style="stroke: none; stroke-width: 1; stroke-dasharray: none; stroke-linecap: butt; stroke-dashoffset: 0; stroke-linejoin: miter; stroke-miterlimit: 4; is-custom-font: none; font-file-url: none; fill: rgb(255,255,255); fill-rule: nonzero; opacity: 1;" points="-2.715,-8.895 -7.615,-8.895 -7.615,-13.875 7.615,-13.875 7.615,-8.895 2.675,-8.895 2.675,13.875 -2.715,13.875 -2.715,-8.895 -2.715,-8.895 "/>
</g>
		<g transform="matrix(1 0 0 1 46.43 52.305)" id="Layer_1">
<polygon style="stroke: none; stroke-width: 1; stroke-dasharray: none; stroke-linecap: butt; stroke-dashoffset: 0; stroke-linejoin: miter; stroke-miterlimit: 4; is-custom-font: none; font-file-url: none; fill: rgb(255,255,255); fill-rule: nonzero; opacity: 1;" points="5.435,1.685 -0.865,1.685 -0.865,9.175 6.255,9.175 6.255,13.875 -6.255,13.875 -6.255,-13.875 5.805,-13.875 5.805,-9.185 -0.865,-9.185 -0.865,-2.805 5.435,-2.805 5.435,1.685 5.435,1.685 "/>
</g>
		<g transform="matrix(1 0 0 1 68.94 52.22)" id="Layer_1">
<path style="stroke: none; stroke-width: 1; stroke-dasharray: none; stroke-linecap: butt; stroke-dashoffset: 0; stroke-linejoin: miter; stroke-miterlimit: 4; is-custom-font: none; font-file-url: none; fill: rgb(255,255,255); fill-rule: nonzero; opacity: 1;" transform=" translate(-283.745, -138.22)" d="M 275.55 124.84 a 32.19 32.19 0 0 1 5.89 -0.54 c 3 0 5.64 0.42 7.41 2.06 a 7.11 7.11 0 0 1 2.23 5.77 A 7.35 7.35 0 0 1 286.8 139 v 0.09 c 1.89 0.78 2.84 2.51 3.37 5.52 a 45.73 45.73 0 0 0 1.77 7.53 H 286.3 a 33.44 33.44 0 0 1 -1.4 -6.67 c -0.49 -3.42 -1.36 -4.41 -3.13 -4.41 H 281 v 11.08 h -5.4 V 124.84 Z m 5.4 12.1 h 1 c 2.34 0 3.66 -1.89 3.66 -4.32 s -1 -4 -3.33 -4.12 a 3.74 3.74 0 0 0 -1.32 0.17 v 8.27 Z" stroke-linecap="round"/>
</g>
		<g transform="matrix(1 0 0 1 94.225 52.305)" id="Layer_1">
<path style="stroke: none; stroke-width: 1; stroke-dasharray: none; stroke-linecap: butt; stroke-dashoffset: 0; stroke-linejoin: miter; stroke-miterlimit: 4; is-custom-font: none; font-file-url: none; fill: rgb(255,255,255); fill-rule: nonzero; opacity: 1;" transform=" translate(-309.03, -138.305)" d="M 315.37 142.46 c -0.16 -2.63 -0.33 -6.17 -0.29 -9.18 H 315 c -0.49 3 -1.23 6.38 -1.77 8.52 l -2.43 9.93 H 307 l -2.3 -9.76 c -0.54 -2.22 -1.28 -5.68 -1.73 -8.69 h -0.08 c -0.09 3 -0.29 6.51 -0.41 9.26 l -0.5 9.64 h -4.61 l 2 -27.75 h 5.73 l 2.22 10 c 0.74 3.5 1.44 6.59 1.94 9.72 h 0.12 c 0.41 -3.09 1 -6.22 1.73 -9.72 l 2.22 -10 H 319 l 1.69 27.75 h -4.81 l -0.5 -9.72 Z" stroke-linecap="round"/>
</g>
		<g transform="matrix(1 0 0 1 116.03 52.305)" id="Layer_1">
<polygon style="stroke: none; stroke-width: 1; stroke-dasharray: none; stroke-linecap: butt; stroke-dashoffset: 0; stroke-linejoin: miter; stroke-miterlimit: 4; is-custom-font: none; font-file-url: none; fill: rgb(255,255,255); fill-rule: nonzero; opacity: 1;" points="2.695,-13.875 2.695,13.875 -2.695,13.875 -2.695,-13.875 2.695,-13.875 2.695,-13.875 "/>
</g>
		<g transform="matrix(1 0 0 1 135.295 52.305)" id="Layer_1">
<path style="stroke: none; stroke-width: 1; stroke-dasharray: none; stroke-linecap: butt; stroke-dashoffset: 0; stroke-linejoin: miter; stroke-miterlimit: 4; is-custom-font: none; font-file-url: none; fill: rgb(255,255,255); fill-rule: nonzero; opacity: 1;" transform=" translate(-350.1, -138.305)" d="M 341.85 152.18 V 124.43 h 4.94 l 4.28 10.91 c 0.86 2.1 2.18 5.68 3 8.07 h 0.08 c -0.17 -2.88 -0.54 -7.74 -0.54 -12.85 v -6.13 h 4.74 v 27.75 h -4.94 l -4.25 -10.58 a 81.41 81.41 0 0 1 -2.84 -8.32 h -0.08 c 0.17 2.8 0.37 7.08 0.37 12.64 v 6.26 Z" stroke-linecap="round"/>
</g>
		<g transform="matrix(1 0 0 1 158.66 52.305)" id="Layer_1">
<path style="stroke: none; stroke-width: 1; stroke-dasharray: none; stroke-linecap: butt; stroke-dashoffset: 0; stroke-linejoin: miter; stroke-miterlimit: 4; is-custom-font: none; font-file-url: none; fill: rgb(255,255,255); fill-rule: nonzero; opacity: 1;" transform=" translate(-373.465, -138.305)" d="M 371 145.84 l -1.24 6.34 h -5.23 l 6 -27.75 H 377 l 5.4 27.75 h -5.27 L 376 145.84 Z m 4.49 -4.2 l -0.91 -5.81 c -0.29 -1.69 -0.66 -4.49 -0.9 -6.3 h -0.13 c -0.28 1.85 -0.7 4.7 -1 6.3 l -1 5.81 Z" stroke-linecap="round"/>
</g>
		<g transform="matrix(1 0 0 1 180.385 52.305)" id="Layer_1">
<polygon style="stroke: none; stroke-width: 1; stroke-dasharray: none; stroke-linecap: butt; stroke-dashoffset: 0; stroke-linejoin: miter; stroke-miterlimit: 4; is-custom-font: none; font-file-url: none; fill: rgb(255,255,255); fill-rule: nonzero; opacity: 1;" points="-6.24,-13.875 -0.84,-13.875 -0.84,9.305 6.24,9.305 6.24,13.875 -6.24,13.875 -6.24,-13.875 -6.24,-13.875 "/>
</g>
		<g transform="matrix(1 0 0 1 199.915 52.3107)" id="Layer_1">
<path style="stroke: none; stroke-width: 1; stroke-dasharray: none; stroke-linecap: butt; stroke-dashoffset: 0; stroke-linejoin: miter; stroke-miterlimit: 4; is-custom-font: none; font-file-url: none; fill: rgb(255,255,255); fill-rule: nonzero; opacity: 1;" transform=" translate(-414.72, -138.3106)" d="M 408.3 146.66 a 10.68 10.68 0 0 0 4.57 1.07 c 2.52 0 3.8 -1.32 3.8 -3.13 c 0 -2 -1.24 -3 -3.59 -4.53 c -3.79 -2.3 -5.23 -5.23 -5.23 -7.74 c 0 -4.44 3 -8.15 8.73 -8.15 a 9.83 9.83 0 0 1 4.37 1 l -0.87 4.65 a 6.61 6.61 0 0 0 -3.5 -0.95 c -2.3 0 -3.42 1.4 -3.42 2.85 c 0 1.68 0.83 2.55 3.79 4.36 c 3.71 2.22 5 5 5 7.95 c 0 5.06 -3.75 8.4 -9.15 8.4 a 12.27 12.27 0 0 1 -5.31 -1.12 l 0.78 -4.65 Z" stroke-linecap="round"/>
</g>
		<g transform="matrix(1 0 0 1 -2.3752 -17.475)" id="Layer_1">
<path style="stroke: none; stroke-width: 1; stroke-dasharray: none; stroke-linecap: butt; stroke-dashoffset: 0; stroke-linejoin: miter; stroke-miterlimit: 4; is-custom-font: none; font-file-url: none; fill: rgb(255,255,255); fill-rule: nonzero; opacity: 1;" transform=" translate(-212.4298, -68.525)" d="M 168.22 67.06 a 38 38 0 0 0 4.18 18.35 c -2.19 2.08 -1.14 3.7 -3.43 3.16 c -3.17 -0.73 -7 -2.91 -7.67 -2.38 c -1.41 1.39 0.91 9.67 1.68 10.74 s 7.17 3.35 9.52 2 a 4.82 4.82 0 0 0 1.77 -1.15 c 0.84 -0.85 1.23 -3.66 2.63 -3.08 c 2 0.81 2.1 0.89 2.1 0.89 l -2.77 18 h 26.23 l 0.82 -4.88 l 5.3 0.5 l 3.57 8.43 l 3.37 -8.34 l 5.53 -0.76 l 0.9 5.05 h 26 l -3.05 -18 s 3.14 -2.46 4 -0.71 c 1.06 2.22 2.35 4.22 3.87 4.68 s 6.35 -0.4 8 -1.78 s 3.47 -7.68 3.21 -9.59 a 2.3 2.3 0 0 0 -2.71 -1.58 c -1.07 0.3 -3.89 1.6 -5.88 2.06 s -1.27 -2.73 -3.87 -4.09 a 42.77 42.77 0 0 0 3.78 -17.6 c 0 -23.59 -19.45 -35 -21 -36.09 c 0 0 -1.83 -11.5 -2 -11.48 H 190.23 s -1.79 12 -1.81 12.07 c -4.37 2.54 -19.28 11.24 -20.2 35.5 Z" stroke-linecap="round"/>
</g>
		<g transform="matrix(1 0 0 1 -3.01 -18.775)" id="Layer_1">
<path style="stroke: none; stroke-width: 1; stroke-dasharray: none; stroke-linecap: butt; stroke-dashoffset: 0; stroke-linejoin: miter; stroke-miterlimit: 4; is-custom-font: none; font-file-url: none; fill: rgb(0,119,200); fill-rule: nonzero; opacity: 1;" transform=" translate(-211.795, -67.225)" d="M 211.79 107.4 c -22.83 0 -41.4 -18 -41.4 -40.17 S 189 27.05 211.79 27.05 s 41.41 18 41.41 40.18 s -18.58 40.17 -41.41 40.17 Z m 0 -77.31 c -21.15 0 -38.37 16.66 -38.37 37.14 s 17.22 37.14 38.37 37.14 s 38.37 -16.66 38.37 -37.14 S 233 30.09 211.79 30.09 Z" stroke-linecap="round"/>
</g>
		<g transform="matrix(1 0 0 1 -3.0248 -15.385)" id="Layer_1">
<path style="stroke: none; stroke-width: 1; stroke-dasharray: none; stroke-linecap: butt; stroke-dashoffset: 0; stroke-linejoin: miter; stroke-miterlimit: 4; is-custom-font: none; font-file-url: none; fill: rgb(255,255,255); fill-rule: nonzero; opacity: 1;" transform=" translate(-211.7802, -70.615)" d="M 215.6 109 l 4 -9.5 l 1.45 9 s 19 -11.29 24.42 -15.71 s 5.11 -8.4 5.11 -8.4 a 7.2 7.2 0 0 0 -7.25 1.07 l -8.77 -53 l -46.24 -0.23 l -7.59 52.6 c -3.54 -2 -7.13 -0.8 -7.74 0.12 s 20.6 22.66 20.6 22.66 l 9.76 0.3 l 1.38 -7.78 l 3.39 8.2 l 7.44 0.65 Z" stroke-linecap="round"/>
</g>
		<g transform="matrix(1 0 0 1 -2.67 -19.435)" id="Layer_1">
<polygon style="stroke: none; stroke-width: 1; stroke-dasharray: none; stroke-linecap: butt; stroke-dashoffset: 0; stroke-linejoin: miter; stroke-miterlimit: 4; is-custom-font: none; font-file-url: none; fill: rgb(218,41,28); fill-rule: nonzero; opacity: 1;" points="-19.955,-44.915 18.585,-44.915 33.245,44.905 11.725,44.905 -0.105,-20.635 -11.475,44.915 -33.245,44.915 -19.955,-44.915 -19.955,-44.915 "/>
</g>
		<g transform="matrix(1 0 0 1 -2.535 -7.825)" id="Layer_1">
<path style="stroke: none; stroke-width: 1; stroke-dasharray: none; stroke-linecap: butt; stroke-dashoffset: 0; stroke-linejoin: miter; stroke-miterlimit: 4; is-custom-font: none; font-file-url: none; fill: rgb(255,255,255); fill-rule: nonzero; opacity: 1;" transform=" translate(-212.27, -78.175)" d="M 181.88 84.87 l 1.77 1.59 c 3.18 -4.29 6.55 -2 6.55 -2 c 1 0.33 3.32 1.49 4.09 2.71 c 0.87 -3.13 4.39 -3 4.39 -3 l -2.8 -6.28 c 0.05 0 7.25 -2.08 7.25 -2.08 V 74.18 h -5.24 V 67.36 h 5.22 V 63.11 h 5.56 V 56.58 h 6.91 v 6.5 h 5.34 v 4.22 H 226 v 6.82 h -5.11 v 1.78 l 7.5 2.52 l -2.07 4.81 c 2.84 1.5 3.71 2.61 4.05 3.83 c 2.84 -2.85 4.67 -3.27 5.68 -3.31 c 3.42 -0.16 5.64 3.4 5.64 3.4 L 244 96.28 c -0.84 0.08 -4.3 2.88 -4.3 2.88 c -1.16 -3.87 -1.78 -4.76 -3.85 -4.72 c -2.22 0 -6.79 5 -6.79 5 c -2 -6.68 -8.49 -3.08 -8.49 -3.08 l -15.94 1.07 c -0.38 -2.66 -3.85 -3.08 -5.44 -3.08 c -1.74 0 -3.09 5.18 -3.09 5.18 c -1.87 -2.15 -5.63 -5.23 -7.85 -5.32 c -2 -0.08 -3.13 5.56 -3.13 5.56 a 8 8 0 0 0 -4.58 -3.18 l 1.32 -11.77 Z" stroke-linecap="round"/>
</g>
		<g transform="matrix(1 0 0 1 -2.64 7.42)" id="Layer_1">
<polygon style="stroke: none; stroke-width: 1; stroke-dasharray: none; stroke-linecap: butt; stroke-dashoffset: 0; stroke-linejoin: miter; stroke-miterlimit: 4; is-custom-font: none; font-file-url: none; fill: rgb(0,119,200); fill-rule: nonzero; opacity: 1;" points="-0.385,-18.72 -13.965,-14.52 -0.005,18.72 13.965,-14.61 -0.385,-18.72 -0.385,-18.72 "/>
</g>
		<g transform="matrix(1 0 0 1 -2.83 -14.85)" id="Layer_1">
<polygon style="stroke: none; stroke-width: 1; stroke-dasharray: none; stroke-linecap: butt; stroke-dashoffset: 0; stroke-linejoin: miter; stroke-miterlimit: 4; is-custom-font: none; font-file-url: none; fill: rgb(0,119,200); fill-rule: nonzero; opacity: 1;" points="-7.415,-6.63 7.415,-6.63 7.415,6.63 -7.415,6.63 -7.415,-6.63 -7.415,-6.63 "/>
</g>
		<g transform="matrix(1 0 0 1 -2.64 -24.095)" id="Layer_1">
<polygon style="stroke: none; stroke-width: 1; stroke-dasharray: none; stroke-linecap: butt; stroke-dashoffset: 0; stroke-linejoin: miter; stroke-miterlimit: 4; is-custom-font: none; font-file-url: none; fill: rgb(0,119,200); fill-rule: nonzero; opacity: 1;" points="-1.925,-3.925 1.925,-3.925 1.925,3.925 -1.925,3.925 -1.925,-3.925 -1.925,-3.925 "/>
</g>
		<g transform="matrix(1 0 0 1 -2.78 -14.435)" id="Layer_1">
<polygon style="stroke: none; stroke-width: 1; stroke-dasharray: none; stroke-linecap: butt; stroke-dashoffset: 0; stroke-linejoin: miter; stroke-miterlimit: 4; is-custom-font: none; font-file-url: none; fill: rgb(255,255,255); fill-rule: nonzero; opacity: 1;" points="-5.155,-4.805 -5.155,4.805 0.335,2.945 5.155,4.535 5.155,-4.805 -5.155,-4.805 -5.155,-4.805 "/>
</g>
		<g transform="matrix(1 0 0 1 -2.88 -15.225)" id="Layer_1">
<polygon style="stroke: none; stroke-width: 1; stroke-dasharray: none; stroke-linecap: butt; stroke-dashoffset: 0; stroke-linejoin: miter; stroke-miterlimit: 4; is-custom-font: none; font-file-url: none; fill: rgb(218,41,28); fill-rule: nonzero; opacity: 1;" points="-12.575,-1.965 12.575,-1.965 12.575,1.965 -12.575,1.965 -12.575,-1.965 -12.575,-1.965 "/>
</g>
		<g transform="matrix(1 0 0 1 2.995 5.08)" id="Layer_1">
<polygon style="stroke: none; stroke-width: 1; stroke-dasharray: none; stroke-linecap: butt; stroke-dashoffset: 0; stroke-linejoin: miter; stroke-miterlimit: 4; is-custom-font: none; font-file-url: none; fill: rgb(255,255,255); fill-rule: nonzero; opacity: 1;" points="-5.25,13.96 5.25,-10.5 -5.25,-13.96 -5.25,13.96 -5.25,13.96 "/>
</g>
		<g transform="matrix(1 0 0 1 27.204 5.5375)" id="Layer_1">
<path style="stroke: none; stroke-width: 1; stroke-dasharray: none; stroke-linecap: butt; stroke-dashoffset: 0; stroke-linejoin: miter; stroke-miterlimit: 4; is-custom-font: none; font-file-url: none; fill: rgb(0,119,200); fill-rule: nonzero; opacity: 1;" transform=" translate(-242.009, -91.5376)" d="M 225.27 85.85 A 4.82 4.82 0 0 1 230 89.56 c 0.92 -0.83 3.09 -3.58 5.91 -4 s 5 2.94 5.53 3.7 c 4.62 -3.87 6.31 -3.47 7.41 -3.36 c 3.28 0.33 2.73 4 4.34 4.77 c 2.84 1.3 8 -2.15 8.52 -1.64 s -2.11 7 -2.11 7 c -0.39 0.79 -3.81 1.67 -5.64 1.5 c -2.51 -0.24 -2.87 -2.06 -4.13 -4 s -2.4 -2.52 -5.14 -0.46 c -1.62 1.21 -3.54 2.84 -4 3.13 a 5.07 5.07 0 0 0 -3.17 -3.62 c -1.31 -0.55 -5.45 0.38 -8 4 c -0.23 -0.3 -2.63 -5.33 -7.28 -3.16 c 0 0 3 -7.63 3 -7.65 Z" stroke-linecap="round"/>
</g>
		<g transform="matrix(1 0 0 1 -32.0039 5.5826)" id="Layer_1">
<path style="stroke: none; stroke-width: 1; stroke-dasharray: none; stroke-linecap: butt; stroke-dashoffset: 0; stroke-linejoin: miter; stroke-miterlimit: 4; is-custom-font: none; font-file-url: none; fill: rgb(0,119,200); fill-rule: nonzero; opacity: 1;" transform=" translate(-182.8012, -91.5826)" d="M 165 96 c 4.81 2.43 7.88 1.51 8.34 0.48 c 0.88 -2 0.69 -2.38 2.25 -3.58 c 2.82 -2.18 8 3 9 4.23 c 1 -4.55 3.2 -4.15 4.3 -4.26 c 3.28 -0.33 6.89 4 7 3.64 c 1.54 -6 6.21 -2.25 6.69 -2.85 l -3.25 -7.88 c -2.82 -0.27 -3.85 2.5 -4.42 3.87 c -1.18 -1.26 -4 -4.35 -7.23 -4 c -2 0.24 -3.17 2.23 -4.17 3.66 c -0.81 -0.53 -2.21 -3.61 -7.51 -3.61 c -1.71 0 -2.77 2 -3.42 3.64 c -1.2 3 -5.54 1 -9.32 -0.56 c -1 -0.42 1.46 7 1.76 7.19 Z" stroke-linecap="round"/>
</g>
</g>
</g>
<g transform="matrix(1 0 0 1 478.8932 617.4133)" style="" id="897408">
		
<path xml:space="preserve" font-family="Lato" font-size="75" font-style="normal" font-weight="bold" style="stroke: none; stroke-width: 1; stroke-dasharray: none; stroke-linecap: butt; stroke-dashoffset: 0; stroke-linejoin: miter; stroke-miterlimit: 4; is-custom-font: none; font-file-url: none; fill: rgb(0,0,0); fill-rule: nonzero; opacity: 1; white-space: pre;" d="M-402.76-30.66L-381.46 23.56L-389.26 23.56Q-390.58 23.56-391.42 22.90Q-392.26 22.25-392.64 21.27L-392.64 21.27L-396.69 10.21L-419.15 10.21L-423.20 21.27Q-423.50 22.14-424.38 22.85Q-425.26 23.56-426.54 23.56L-426.54 23.56L-434.38 23.56L-413.08-30.66L-402.76-30.66ZM-409.96-14.88L-416.56 3.09L-399.28 3.09L-405.88-14.95Q-406.33-16.15-406.87-17.78Q-407.41-19.41-407.94-21.33L-407.94-21.33Q-408.46-19.41-408.97-17.76Q-409.48-16.11-409.96-14.88L-409.96-14.88ZM-344.34-25.56L-346.81-20.80Q-347.23-19.98-347.77-19.64Q-348.31-19.30-349.06-19.30L-349.06-19.30Q-349.81-19.30-350.75-19.88Q-351.69-20.46-352.96-21.18Q-354.24-21.89-355.94-22.47Q-357.65-23.05-359.98-23.05L-359.98-23.05Q-362.08-23.05-363.63-22.55Q-365.19-22.04-366.26-21.14Q-367.33-20.24-367.85-18.98Q-368.38-17.73-368.38-16.23L-368.38-16.23Q-368.38-14.31-367.31-13.04Q-366.24-11.76-364.48-10.86Q-362.71-9.96-360.46-9.25Q-358.21-8.54-355.87-7.73Q-353.53-6.93-351.28-5.86Q-349.03-4.79-347.26-3.16Q-345.50-1.53-344.43 0.84Q-343.36 3.20-343.36 6.57L-343.36 6.57Q-343.36 10.25-344.62 13.45Q-345.88 16.66-348.29 19.04Q-350.71 21.42-354.20 22.79Q-357.69 24.16-362.19 24.16L-362.19 24.16Q-364.78 24.16-367.29 23.65Q-369.80 23.15-372.11 22.21Q-374.41 21.27-376.42 19.96Q-378.43 18.65-380.00 17.04L-380.00 17.04L-377.08 12.20Q-376.66 11.67-376.08 11.32Q-375.50 10.96-374.79 10.96L-374.79 10.96Q-373.85 10.96-372.76 11.73Q-371.68 12.50-370.19 13.44Q-368.71 14.37-366.71 15.14Q-364.70 15.91-361.89 15.91L-361.89 15.91Q-357.58 15.91-355.21 13.87Q-352.85 11.82-352.85 8.00L-352.85 8.00Q-352.85 5.86-353.92 4.51Q-354.99 3.16-356.75 2.24Q-358.51 1.32-360.76 0.69Q-363.01 0.05-365.34-0.70Q-367.66-1.45-369.91-2.50Q-372.16-3.55-373.93-5.24Q-375.69-6.93-376.76-9.46Q-377.83-11.99-377.83-15.70L-377.83-15.70Q-377.83-18.66-376.64-21.48Q-375.46-24.29-373.19-26.46Q-370.93-28.64-367.63-29.95Q-364.33-31.26-360.09-31.26L-360.09-31.26Q-355.29-31.26-351.24-29.76Q-347.19-28.26-344.34-25.56L-344.34-25.56ZM-304.10-25.56L-306.58-20.80Q-306.99-19.98-307.53-19.64Q-308.08-19.30-308.83-19.30L-308.83-19.30Q-309.58-19.30-310.51-19.88Q-311.45-20.46-312.73-21.18Q-314.00-21.89-315.71-22.47Q-317.41-23.05-319.74-23.05L-319.74-23.05Q-321.84-23.05-323.39-22.55Q-324.95-22.04-326.02-21.14Q-327.09-20.24-327.61-18.98Q-328.14-17.73-328.14-16.23L-328.14-16.23Q-328.14-14.31-327.07-13.04Q-326.00-11.76-324.24-10.86Q-322.48-9.96-320.23-9.25Q-317.98-8.54-315.63-7.73Q-313.29-6.93-311.04-5.86Q-308.79-4.79-307.03-3.16Q-305.26-1.53-304.19 0.84Q-303.13 3.20-303.13 6.57L-303.13 6.57Q-303.13 10.25-304.38 13.45Q-305.64 16.66-308.06 19.04Q-310.48 21.42-313.96 22.79Q-317.45 24.16-321.95 24.16L-321.95 24.16Q-324.54 24.16-327.05 23.65Q-329.56 23.15-331.87 22.21Q-334.18 21.27-336.18 19.96Q-338.19 18.65-339.76 17.04L-339.76 17.04L-336.84 12.20Q-336.43 11.67-335.84 11.32Q-335.26 10.96-334.55 10.96L-334.55 10.96Q-333.61 10.96-332.53 11.73Q-331.44 12.50-329.96 13.44Q-328.48 14.37-326.47 15.14Q-324.46 15.91-321.65 15.91L-321.65 15.91Q-317.34 15.91-314.98 13.87Q-312.61 11.82-312.61 8.00L-312.61 8.00Q-312.61 5.86-313.68 4.51Q-314.75 3.16-316.51 2.24Q-318.28 1.32-320.53 0.69Q-322.78 0.05-325.10-0.70Q-327.43-1.45-329.68-2.50Q-331.93-3.55-333.69-5.24Q-335.45-6.93-336.52-9.46Q-337.59-11.99-337.59-15.70L-337.59-15.70Q-337.59-18.66-336.41-21.48Q-335.23-24.29-332.96-26.46Q-330.69-28.64-327.39-29.95Q-324.09-31.26-319.85-31.26L-319.85-31.26Q-315.05-31.26-311.00-29.76Q-306.95-28.26-304.10-25.56L-304.10-25.56ZM-243.39-3.55L-243.39-3.55Q-243.39 2.41-245.38 7.49Q-247.36 12.57-250.96 16.29Q-254.56 20.00-259.63 22.08Q-264.69 24.16-270.84 24.16L-270.84 24.16Q-276.99 24.16-282.07 22.08Q-287.15 20.00-290.77 16.29Q-294.39 12.57-296.38 7.49Q-298.36 2.41-298.36-3.55L-298.36-3.55Q-298.36-9.51-296.38-14.60Q-294.39-19.68-290.77-23.39Q-287.15-27.10-282.07-29.18Q-276.99-31.26-270.84-31.26L-270.84-31.26Q-264.69-31.26-259.63-29.16Q-254.56-27.06-250.96-23.37Q-247.36-19.68-245.38-14.60Q-243.39-9.51-243.39-3.55ZM-253.74-3.55L-253.74-3.55Q-253.74-8.01-254.92-11.56Q-256.10-15.10-258.31-17.58Q-260.53-20.05-263.69-21.36Q-266.86-22.68-270.84-22.68L-270.84-22.68Q-274.81-22.68-278.00-21.36Q-281.19-20.05-283.42-17.58Q-285.65-15.10-286.85-11.56Q-288.05-8.01-288.05-3.55L-288.05-3.55Q-288.05 0.91-286.85 4.45Q-285.65 8.00-283.42 10.45Q-281.19 12.91-278.00 14.22Q-274.81 15.54-270.84 15.54L-270.84 15.54Q-266.86 15.54-263.69 14.22Q-260.53 12.91-258.31 10.45Q-256.10 8.00-254.92 4.45Q-253.74 0.91-253.74-3.55ZM-198.16 10.77L-198.16 10.77Q-197.34 10.77-196.74 11.41L-196.74 11.41L-192.76 15.72Q-196.06 19.81-200.88 21.99Q-205.70 24.16-212.45 24.16L-212.45 24.16Q-218.49 24.16-223.31 22.10Q-228.13 20.04-231.54 16.36Q-234.95 12.69-236.77 7.59Q-238.59 2.49-238.59-3.55L-238.59-3.55Q-238.59-9.66-236.56-14.75Q-234.54-19.83-230.86-23.50Q-227.19-27.18-222.07-29.22Q-216.95-31.26-210.76-31.26L-210.76-31.26Q-204.73-31.26-200.21-29.33Q-195.69-27.40-192.46-24.21L-192.46-24.21L-195.84-19.53Q-196.14-19.08-196.61-18.74Q-197.08-18.40-197.90-18.40L-197.90-18.40Q-198.76-18.40-199.66-19.08Q-200.56-19.75-201.95-20.54Q-203.34-21.33-205.46-22.00Q-207.58-22.68-210.84-22.68L-210.84-22.68Q-214.66-22.68-217.87-21.35Q-221.08-20.01-223.38-17.54Q-225.69-15.06-226.98-11.52Q-228.28-7.98-228.28-3.55L-228.28-3.55Q-228.28 1.02-226.98 4.59Q-225.69 8.15-223.48 10.59Q-221.26 13.02-218.26 14.32Q-215.26 15.61-211.81 15.61L-211.81 15.61Q-209.75 15.61-208.08 15.39Q-206.41 15.16-205.01 14.67Q-203.60 14.19-202.34 13.42Q-201.09 12.65-199.85 11.52L-199.85 11.52Q-199.48 11.19-199.06 10.98Q-198.65 10.77-198.16 10.77ZM-173.79-30.66L-173.79 23.56L-183.91 23.56L-183.91-30.66L-173.79-30.66ZM-135.24-30.66L-113.94 23.56L-121.74 23.56Q-123.05 23.56-123.89 22.90Q-124.74 22.25-125.11 21.27L-125.11 21.27L-129.16 10.21L-151.63 10.21L-155.68 21.27Q-155.98 22.14-156.86 22.85Q-157.74 23.56-159.01 23.56L-159.01 23.56L-166.85 23.56L-145.55-30.66L-135.24-30.66ZM-142.44-14.88L-149.04 3.09L-131.75 3.09L-138.35-14.95Q-138.80-16.15-139.34-17.78Q-139.89-19.41-140.41-21.33L-140.41-21.33Q-140.94-19.41-141.44-17.76Q-141.95-16.11-142.44-14.88L-142.44-14.88ZM-118.44-30.66L-75.65-30.66L-75.65-22.38L-91.96-22.38L-91.96 23.56L-102.05 23.56L-102.05-22.38L-118.44-22.38L-118.44-30.66ZM-69.24-30.66L-35.04-30.66L-35.04-22.64L-59.08-22.64L-59.08-7.60L-40.14-7.60L-40.14 0.16L-59.08 0.16L-59.08 15.50L-35.04 15.50L-35.04 23.56L-69.24 23.56L-69.24-30.66ZM21.85-3.55L21.85-3.55Q21.85 2.41 19.86 7.40Q17.87 12.39 14.27 15.99Q10.67 19.59 5.61 21.57Q0.55 23.56-5.60 23.56L-5.60 23.56L-26.30 23.56L-26.30-30.66L-5.60-30.66Q0.55-30.66 5.61-28.66Q10.67-26.65 14.27-23.07Q17.87-19.49 19.86-14.50Q21.85-9.51 21.85-3.55ZM11.54-3.55L11.54-3.55Q11.54-8.01 10.34-11.56Q9.14-15.10 6.92-17.56Q4.71-20.01 1.54-21.33Q-1.63-22.64-5.60-22.64L-5.60-22.64L-16.14-22.64L-16.14 15.54L-5.60 15.54Q-1.63 15.54 1.54 14.22Q4.71 12.91 6.92 10.45Q9.14 8.00 10.34 4.45Q11.54 0.91 11.54-3.55ZM39.66-30.66L82.45-30.66L82.45-22.38L66.14-22.38L66.14 23.56L56.05 23.56L56.05-22.38L39.66-22.38L39.66-30.66ZM88.86-30.66L123.06-30.66L123.06-22.64L99.02-22.64L99.02-7.60L117.96-7.60L117.96 0.16L99.02 0.16L99.02 15.50L123.06 15.50L123.06 23.56L88.86 23.56L88.86-30.66ZM146.54 2.37L142.22 2.37L142.22 23.56L132.14 23.56L132.14-30.66L148.67-30.66Q154.22-30.66 158.18-29.52Q162.14-28.38 164.67-26.31Q167.20-24.25 168.38-21.38Q169.56-18.51 169.56-15.06L169.56-15.06Q169.56-12.33 168.76-9.89Q167.95-7.45 166.43-5.46Q164.91-3.48 162.68-1.98Q160.45-0.48 157.60 0.42L157.60 0.42Q159.51 1.51 160.90 3.54L160.90 3.54L174.47 23.56L165.40 23.56Q164.09 23.56 163.17 23.04Q162.25 22.51 161.61 21.54L161.61 21.54L150.21 4.17Q149.57 3.20 148.81 2.79Q148.04 2.37 146.54 2.37L146.54 2.37ZM142.22-22.86L142.22-4.86L148.52-4.86Q151.37-4.86 153.49-5.58Q155.61-6.29 156.98-7.55Q158.35-8.80 159.02-10.53Q159.70-12.25 159.70-14.31L159.70-14.31Q159.70-18.44 156.98-20.65Q154.26-22.86 148.67-22.86L148.67-22.86L142.22-22.86ZM208.15 1.06L208.15 1.06Q208.79 2.26 209.33 3.55Q209.87 4.85 210.40 6.16L210.40 6.16Q210.92 4.81 211.49 3.50Q212.05 2.19 212.69 0.99L212.69 0.99L228.74-29.05Q229.04-29.61 229.36-29.95Q229.67-30.29 230.07-30.44Q230.46-30.59 230.95-30.63Q231.44-30.66 232.11-30.66L232.11-30.66L239.72-30.66L239.72 23.56L230.84 23.56L230.84-11.46Q230.84-12.44 230.89-13.60Q230.95-14.76 231.06-15.96L231.06-15.96L214.67 14.79Q214.11 15.84 213.21 16.42Q212.31 17.00 211.11 17.00L211.11 17.00L209.72 17.00Q208.52 17.00 207.62 16.42Q206.72 15.84 206.16 14.79L206.16 14.79L189.55-16.08Q189.70-14.84 189.76-13.66Q189.81-12.48 189.81-11.46L189.81-11.46L189.81 23.56L180.92 23.56L180.92-30.66L188.54-30.66Q189.21-30.66 189.70-30.63Q190.19-30.59 190.58-30.44Q190.97-30.29 191.31-29.95Q191.65-29.61 191.95-29.05L191.95-29.05L208.15 1.06ZM262.04-30.66L262.04 23.56L251.91 23.56L251.91-30.66L262.04-30.66ZM279.51-30.66L279.51-30.66Q280.19-30.66 280.64-30.61Q281.09-30.55 281.44-30.38Q281.80-30.21 282.14-29.90Q282.47-29.58 282.89-29.05L282.89-29.05L311.35 7.21Q311.20 5.90 311.14 4.64Q311.09 3.39 311.09 2.30L311.09 2.30L311.09-30.66L319.97-30.66L319.97 23.56L314.76 23.56Q313.56 23.56 312.77 23.19Q311.99 22.81 311.24 21.84L311.24 21.84L282.89-14.28Q283.00-13.08 283.06-11.90Q283.11-10.71 283.11-9.74L283.11-9.74L283.11 23.56L274.22 23.56L274.22-30.66L279.51-30.66ZM357.29-30.66L378.59 23.56L370.79 23.56Q369.47 23.56 368.63 22.90Q367.79 22.25 367.41 21.27L367.41 21.27L363.36 10.21L340.90 10.21L336.85 21.27Q336.55 22.14 335.67 22.85Q334.79 23.56 333.51 23.56L333.51 23.56L325.67 23.56L346.97-30.66L357.29-30.66ZM350.09-14.88L343.49 3.09L360.77 3.09L354.17-14.95Q353.72-16.15 353.18-17.78Q352.64-19.41 352.11-21.33L352.11-21.33Q351.59-19.41 351.08-17.76Q350.57-16.11 350.09-14.88L350.09-14.88ZM394.26-30.66L394.26 15.24L415.97 15.24L415.97 23.56L384.17 23.56L384.17-30.66L394.26-30.66ZM454.49-25.56L452.01-20.80Q451.60-19.98 451.06-19.64Q450.51-19.30 449.76-19.30L449.76-19.30Q449.01-19.30 448.07-19.88Q447.14-20.46 445.86-21.18Q444.59-21.89 442.88-22.47Q441.17-23.05 438.85-23.05L438.85-23.05Q436.75-23.05 435.19-22.55Q433.64-22.04 432.57-21.14Q431.50-20.24 430.97-18.98Q430.45-17.73 430.45-16.23L430.45-16.23Q430.45-14.31 431.52-13.04Q432.59-11.76 434.35-10.86Q436.11-9.96 438.36-9.25Q440.61-8.54 442.96-7.73Q445.30-6.93 447.55-5.86Q449.80-4.79 451.56-3.16Q453.32-1.53 454.39 0.84Q455.46 3.20 455.46 6.57L455.46 6.57Q455.46 10.25 454.21 13.45Q452.95 16.66 450.53 19.04Q448.11 21.42 444.62 22.79Q441.14 24.16 436.64 24.16L436.64 24.16Q434.05 24.16 431.54 23.65Q429.02 23.15 426.72 22.21Q424.41 21.27 422.41 19.96Q420.40 18.65 418.82 17.04L418.82 17.04L421.75 12.20Q422.16 11.67 422.74 11.32Q423.32 10.96 424.04 10.96L424.04 10.96Q424.97 10.96 426.06 11.73Q427.15 12.50 428.63 13.44Q430.11 14.37 432.12 15.14Q434.12 15.91 436.94 15.91L436.94 15.91Q441.25 15.91 443.61 13.87Q445.97 11.82 445.97 8.00L445.97 8.00Q445.97 5.86 444.91 4.51Q443.84 3.16 442.07 2.24Q440.31 1.32 438.06 0.69Q435.81 0.05 433.49-0.70Q431.16-1.45 428.91-2.50Q426.66-3.55 424.90-5.24Q423.14-6.93 422.07-9.46Q421.00-11.99 421.00-15.70L421.00-15.70Q421.00-18.66 422.18-21.48Q423.36-24.29 425.63-26.46Q427.90-28.64 431.20-29.95Q434.50-31.26 438.74-31.26L438.74-31.26Q443.54-31.26 447.59-29.76Q451.64-28.26 454.49-25.56L454.49-25.56Z"/></g>
</svg>